<?xml version="1.0" standalone="no"?>
<!DOCTYPE svg PUBLIC "-//W3C//DTD SVG 20010904//EN"
 "http://www.w3.org/TR/2001/REC-SVG-20010904/DTD/svg10.dtd">
<svg version="1.0" xmlns="http://www.w3.org/2000/svg"
 width="675.000000pt" height="675.000000pt" viewBox="0 0 675.000000 675.000000"
 preserveAspectRatio="xMidYMid meet">
<metadata>
Created by potrace 1.14, written by Peter Selinger 2001-2017
</metadata>
<g transform="translate(0.000000,675.000000) scale(0.100000,-0.100000)"
fill="#000000" stroke="none">
<path d="M0 6011 c0 -583 3 -740 13 -743 18 -7 19 -154 1 -197 -10 -25 -14
-83 -14 -228 l0 -194 23 8 c37 14 102 9 131 -11 15 -10 39 -42 53 -72 14 -30
34 -60 44 -67 10 -6 19 -17 19 -24 0 -7 4 -13 9 -13 6 0 9 -8 9 -17 0 -10 2
-47 6 -83 5 -39 4 -60 -2 -52 -6 10 -17 6 -47 -18 -32 -25 -46 -30 -95 -30
-44 0 -61 4 -75 20 -10 11 -31 20 -47 20 l-28 0 0 -608 c0 -460 3 -611 12
-620 7 -7 24 -12 40 -12 19 0 26 -4 22 -13 -4 -10 6 -13 41 -11 25 2 45 -1 45
-6 0 -12 74 -3 78 9 2 6 10 11 17 11 7 0 15 10 18 21 4 16 11 20 26 16 29 -7
36 10 11 25 -12 7 -35 34 -51 60 -27 42 -30 53 -24 95 7 54 17 69 60 100 94
65 204 8 208 -109 2 -44 -21 -106 -48 -128 -8 -7 -15 -19 -15 -26 0 -16 26
-19 35 -4 3 5 12 7 19 4 8 -3 17 -1 21 5 3 6 15 11 26 11 10 0 19 5 19 10 0 6
13 10 28 10 15 0 32 4 38 9 10 11 91 16 114 8 60 -20 103 -28 109 -18 4 5 30
13 59 17 59 8 126 -8 154 -37 10 -10 26 -15 38 -12 11 3 20 1 20 -5 0 -11 38
-5 56 9 6 5 13 6 16 3 3 -3 5 32 4 77 -3 105 1 123 33 158 43 47 60 83 50 109
-5 12 -6 29 -3 37 4 8 2 15 -2 15 -5 0 -10 22 -12 49 -2 36 1 50 13 55 8 3 15
10 15 16 0 6 -5 8 -11 4 -7 -4 -10 -1 -7 7 4 11 22 13 74 12 38 -2 80 -3 93
-3 13 0 30 -5 38 -11 11 -9 17 -8 27 7 13 17 36 136 36 184 0 11 5 20 11 20 5
0 8 4 4 9 -3 5 -1 12 5 16 5 3 10 -1 10 -9 0 -9 6 -16 14 -16 21 0 28 -15 33
-71 3 -34 1 -49 -7 -49 -7 0 -10 -7 -6 -16 3 -8 2 -13 -3 -10 -5 3 -11 -13
-14 -37 -26 -234 -30 -279 -21 -285 5 -4 9 -16 10 -27 0 -11 4 -30 8 -42 12
-38 -9 -26 -23 12 -7 19 -17 33 -22 29 -6 -3 -8 -12 -5 -20 3 -8 -1 -14 -9
-14 -8 0 -15 -4 -15 -10 0 -5 6 -10 13 -10 18 0 14 -83 -7 -114 -9 -15 -14
-31 -11 -36 3 -4 36 -18 73 -31 37 -12 77 -33 89 -46 20 -21 48 -28 93 -25 17
1 78 -175 104 -303 31 -148 45 -204 81 -323 45 -151 82 -342 87 -442 l3 -75
-69 -22 c-77 -25 -81 -29 -90 -86 -5 -30 -2 -44 10 -58 10 -11 14 -22 10 -27
-4 -4 -14 1 -21 11 -12 17 -14 17 -46 -2 -19 -12 -39 -21 -46 -21 -7 0 -23
-10 -36 -22 -13 -13 -32 -30 -43 -39 -23 -18 -67 -32 -58 -18 3 5 -1 9 -8 9
-20 0 -118 -43 -118 -52 0 -4 -8 -8 -18 -8 -10 0 -27 -7 -38 -15 -18 -13 -15
-14 29 -15 27 0 57 5 67 10 24 13 35 -4 15 -23 -17 -18 -9 -51 11 -43 8 3 11
0 7 -10 -6 -17 -19 -18 -27 -1 -5 9 -7 9 -12 0 -3 -7 -13 -13 -22 -13 -13 0
-13 -3 -4 -12 10 -10 15 -10 22 2 8 13 11 12 24 -5 12 -16 18 -18 33 -9 10 6
19 22 21 35 6 56 13 73 22 59 5 -8 12 -11 16 -7 4 3 1 13 -5 21 -19 22 -3 38
29 31 24 -5 28 -2 34 19 3 15 11 26 16 26 6 0 10 11 10 24 0 24 16 43 26 33 3
-3 6 -19 6 -37 1 -34 22 -50 41 -31 9 9 8 14 -3 21 -12 8 -11 11 7 16 13 4 23
13 23 20 0 23 18 16 22 -9 2 -13 11 -23 24 -25 15 -2 25 -15 33 -42 6 -21 11
-42 10 -47 -4 -26 3 -33 33 -31 28 3 33 -1 41 -29 6 -18 14 -33 18 -33 5 0 9
-6 9 -13 0 -15 49 -42 58 -32 3 2 -2 13 -11 23 -10 10 -17 22 -17 27 0 4 -16
26 -36 49 -54 63 -56 66 -52 82 2 11 13 2 33 -26 44 -62 75 -90 99 -89 21 0
21 0 -1 11 -24 11 -36 34 -27 49 8 14 24 11 24 -6 0 -8 4 -15 9 -15 4 0 6 10
4 23 -3 17 2 26 21 35 32 14 34 40 4 52 -18 7 -19 9 -5 9 17 1 24 25 9 34 -4
2 -2 2 5 1 22 -5 24 14 2 29 -13 10 -16 16 -8 19 9 3 5 12 -11 28 -17 17 -19
22 -6 17 37 -14 81 27 81 76 1 31 -3 32 -32 12 -18 -13 -22 -12 -38 5 -18 20
-14 70 5 70 6 0 8 -11 4 -24 -8 -35 2 -49 27 -35 13 6 19 19 17 32 -1 12 1 28
5 34 5 7 4 13 -1 13 -6 0 -12 7 -16 15 -4 10 5 20 29 29 24 10 35 22 35 35 0
29 18 26 26 -4 7 -27 34 -35 34 -10 0 8 -4 15 -9 15 -4 0 -6 11 -3 25 5 30 32
34 32 5 0 -12 7 -20 18 -21 9 0 12 -3 5 -5 -8 -4 -8 -12 3 -32 7 -15 12 -34 9
-42 -4 -13 2 -15 31 -12 24 3 32 7 23 13 -7 4 -17 5 -21 3 -4 -3 -8 -1 -8 4 0
6 8 13 17 16 12 5 23 -1 36 -18 22 -31 33 -33 39 -8 4 13 16 18 49 19 24 1 47
-3 52 -10 6 -9 7 -8 6 3 -3 19 11 50 21 50 5 0 15 -7 23 -15 13 -12 17 -12 27
0 8 10 18 11 36 5 23 -9 24 -8 18 16 -5 20 -3 25 7 22 8 -3 17 -18 20 -34 4
-16 7 -21 8 -11 0 9 6 17 12 17 5 0 7 5 3 11 -4 8 1 9 15 4 12 -4 28 -2 36 5
8 6 19 9 25 5 5 -3 10 -2 10 4 0 5 -18 9 -40 8 -22 -1 -45 4 -52 11 -9 9 -7
12 10 12 25 0 28 10 10 28 -9 9 -8 12 5 12 24 0 21 21 -3 27 -20 5 -29 43 -10
43 5 0 7 7 4 15 -4 8 -1 21 5 29 18 21 4 44 -25 38 -14 -2 -24 0 -24 7 0 6 -9
11 -21 11 -12 0 -19 5 -16 13 2 6 15 11 29 9 33 -4 45 14 18 28 -14 8 -20 8
-20 0 0 -6 -5 -8 -11 -4 -7 4 -7 10 -1 16 7 7 21 5 43 -6 18 -9 38 -16 44 -16
7 0 15 -7 19 -15 3 -9 18 -15 38 -14 31 0 32 1 11 11 -29 14 -30 28 -2 28 11
0 17 4 14 10 -3 5 7 13 22 17 35 9 201 9 271 -1 36 -4 52 -3 47 3 -3 6 11 17
31 26 46 19 47 19 39 -4 -9 -30 14 -35 25 -6 5 14 14 24 19 21 10 -6 35 20 44
47 6 15 17 21 77 43 13 4 13 6 0 14 -10 7 -11 10 -2 10 6 0 12 7 12 15 0 8 6
15 13 15 8 1 6 5 -4 13 -9 7 -16 14 -17 17 0 3 -5 16 -11 30 -6 17 -10 19 -10
8 -1 -28 -23 -68 -38 -68 -15 0 -54 -36 -47 -43 5 -4 -37 -19 -61 -21 -26 -3
-54 -18 -52 -28 1 -6 -4 -13 -10 -15 -7 -3 -13 2 -13 11 0 18 -15 21 -25 6
-10 -16 -73 -12 -108 6 -21 12 -32 13 -35 5 -5 -16 -32 -14 -32 3 0 11 -8 12
-34 6 -26 -6 -36 -4 -40 6 -3 8 -19 14 -36 14 -30 0 -30 -1 -15 -24 15 -23 15
-24 -16 -30 -17 -3 -36 -3 -42 1 -6 4 -21 8 -34 9 -48 5 -93 63 -93 120 0 16
2 17 11 4 9 -12 10 -12 7 -1 -7 23 -26 24 -33 2 -7 -22 -25 -29 -25 -9 0 6 -3
9 -6 5 -23 -23 -103 55 -90 88 3 9 -10 29 -31 50 -32 31 -38 33 -52 21 -9 -7
-31 -21 -49 -30 -30 -16 -36 -16 -55 -2 -39 27 -52 41 -65 66 -7 14 -22 41
-33 60 -10 19 -19 49 -19 66 0 17 -11 48 -25 68 -14 20 -25 43 -25 50 0 7 -9
30 -19 52 -11 22 -22 60 -24 84 -2 24 -9 46 -16 48 -6 2 -11 10 -11 19 0 8 -7
13 -17 11 -12 -2 -17 -11 -15 -27 3 -16 0 -21 -8 -16 -6 4 -10 16 -7 26 3 11
2 19 -2 19 -4 0 -13 16 -20 35 -11 30 -10 37 4 52 13 12 16 13 15 2 -4 -28 0
-49 10 -49 6 0 10 15 10 34 0 40 24 102 42 109 11 4 11 7 0 15 -18 12 -24 57
-13 98 6 20 6 32 0 29 -5 -4 -9 -13 -9 -21 0 -17 -10 -17 -31 -1 -17 13 -35
56 -30 72 2 6 5 21 8 35 2 14 14 36 26 48 l22 24 -24 -4 c-19 -2 -25 2 -26 19
-1 12 2 20 6 18 16 -10 -2 90 -19 103 -9 7 -16 18 -14 23 1 6 -6 8 -18 4 -14
-4 -20 -2 -20 8 0 11 -7 13 -22 9 l-21 -5 20 22 c12 13 25 27 30 32 31 34 86
78 114 92 31 14 35 14 43 0 9 -16 -7 -33 -32 -33 -7 0 -10 -4 -7 -10 3 -5 25
-10 48 -10 28 0 37 -3 28 -9 -16 -10 -6 -31 15 -31 8 0 14 -4 14 -10 0 -21 63
-2 82 25 5 6 8 5 8 -4 0 -16 26 -12 170 23 52 13 109 22 125 21 17 -1 33 3 37
8 3 6 20 10 37 10 17 0 31 4 31 9 0 4 14 8 30 8 17 0 30 -3 30 -6 0 -11 -65
-100 -84 -114 -11 -8 -45 -29 -75 -45 -59 -32 -111 -78 -111 -98 0 -7 6 -22
14 -33 10 -13 11 -25 5 -35 -5 -8 -9 -24 -9 -36 0 -24 -36 -99 -51 -109 -5 -3
-7 -10 -4 -15 4 -5 -5 -14 -19 -21 -14 -6 -26 -15 -26 -20 0 -4 -5 -8 -11 -8
-7 0 -20 -10 -30 -21 -18 -21 -18 -23 -1 -36 9 -8 11 -11 3 -7 -11 5 -13 2 -8
-17 4 -13 7 -30 7 -36 0 -7 6 -13 14 -13 7 0 19 -14 27 -31 11 -29 11 -34 -7
-48 -23 -19 -21 -46 4 -55 24 -8 102 -73 96 -79 -3 -3 0 -14 7 -26 12 -17 10
-24 -11 -47 -22 -23 -23 -26 -6 -22 15 2 22 -5 29 -29 6 -18 13 -33 18 -33 4
0 5 -10 1 -22 -5 -21 -4 -22 11 -9 17 14 21 10 18 -21 -1 -9 3 -19 9 -23 6 -3
10 3 10 14 0 12 5 21 10 21 6 0 10 -4 10 -10 0 -5 10 -12 23 -15 18 -5 33 3
66 35 l43 42 -31 -7 c-21 -4 -31 -3 -31 5 0 7 -8 10 -20 7 -11 -3 -22 -2 -25
3 -9 15 20 28 60 25 55 -3 55 -3 55 -21 0 -8 5 -24 11 -35 10 -20 11 -20 25
-2 9 12 16 14 21 7 5 -6 23 -14 42 -18 19 -3 43 -14 53 -23 15 -14 22 -14 45
-4 25 12 26 14 11 25 -10 7 -15 16 -12 19 3 3 -4 10 -15 17 -15 8 -32 8 -62 0
-30 -8 -50 -8 -76 1 -31 10 -34 14 -28 38 7 30 8 50 3 71 -2 9 6 16 21 18 18
3 21 6 11 12 -8 5 -22 4 -32 -1 -11 -6 -24 -6 -35 0 -10 5 -31 13 -47 16 -22
5 -27 10 -23 25 3 13 0 20 -9 20 -21 0 -35 37 -32 87 4 54 26 75 57 56 15 -10
22 -9 31 1 9 11 54 14 220 12 184 -3 212 -5 229 -20 12 -11 27 -15 39 -12 26
9 49 -2 55 -25 3 -13 11 -17 21 -13 9 3 16 1 16 -5 0 -6 9 -11 20 -11 11 0 20
-7 20 -15 0 -8 7 -15 15 -15 8 0 15 -9 15 -20 0 -12 -5 -17 -13 -14 -8 3 -20
-2 -27 -11 -10 -12 -16 -13 -27 -3 -12 10 -18 9 -30 -7 -11 -14 -17 -16 -20
-7 -3 6 -14 12 -25 12 -20 0 -20 -1 -4 -19 17 -18 16 -20 -18 -32 -42 -15 -47
-29 -12 -29 32 0 45 -20 14 -21 -22 0 -22 -1 -3 -8 29 -11 95 -1 95 14 0 18
110 115 131 115 74 0 11 118 -66 124 -5 1 -13 5 -16 10 -4 5 -38 19 -75 31
-57 18 -94 22 -214 23 -126 1 -240 12 -290 29 -8 3 -35 4 -60 3 -25 -2 -54 -3
-65 -4 -11 -1 -26 -5 -32 -9 -9 -5 -13 -3 -13 7 0 9 13 18 35 22 19 3 35 10
35 15 0 5 9 9 21 9 11 0 18 4 15 8 -3 5 1 9 9 9 8 0 15 -4 15 -9 0 -16 20 -8
21 10 0 10 3 12 6 5 5 -14 34 -18 32 -5 -3 19 3 28 31 40 16 8 34 11 40 7 5
-3 10 0 10 7 0 9 3 9 10 -2 8 -12 12 -12 18 -2 6 9 13 0 22 -28 8 -25 16 -36
21 -29 4 7 5 18 2 25 -2 6 0 15 6 19 7 3 8 0 5 -9 -10 -26 20 -18 32 8 8 18 8
28 -3 42 -20 27 -16 51 10 56 37 6 57 -2 57 -25 1 -21 1 -21 15 -3 9 12 20 16
32 12 17 -7 17 -8 -2 -23 -19 -15 -18 -15 13 -9 29 5 32 3 32 -19 0 -19 9 -29
38 -43 20 -9 42 -23 48 -31 9 -12 12 -11 17 3 8 21 19 20 47 -4 15 -13 31 -18
45 -14 14 3 34 -1 49 -11 20 -14 26 -14 26 -4 0 24 -16 40 -33 33 -9 -3 -17
-2 -17 4 0 5 -17 14 -37 19 -26 6 -38 14 -37 26 1 9 -4 17 -12 17 -8 0 -11 6
-7 16 3 8 12 13 19 10 11 -4 10 0 -2 19 -9 14 -20 22 -25 19 -5 -3 -9 -1 -9 5
0 5 6 12 13 14 6 3 1 6 -13 6 l-25 1 30 19 c39 25 65 56 65 81 0 26 -15 25
-41 -1 -12 -12 -27 -18 -37 -14 -9 3 -48 10 -86 15 -54 7 -78 5 -104 -6 -19
-8 -45 -14 -58 -14 -13 0 -24 -5 -24 -11 0 -5 -4 -7 -10 -4 -5 3 -10 1 -10 -4
0 -23 -33 -9 -70 31 -22 23 -40 45 -40 50 0 4 -7 8 -15 8 -26 0 -19 68 11 107
14 18 23 37 20 42 -3 5 1 14 9 21 9 7 13 21 10 30 -3 9 1 23 9 29 29 24 36 72
22 150 -12 68 -16 76 -54 108 -23 19 -42 41 -42 49 0 8 -7 17 -16 21 -15 6
-15 7 0 19 23 17 2 28 -25 13 -17 -9 -24 -8 -37 4 -14 14 -13 19 1 49 13 25
17 28 18 13 0 -16 3 -14 14 10 8 17 14 39 14 50 0 20 0 20 -14 1 -14 -19 -15
-19 -34 2 -23 27 -41 28 -41 2 0 -23 -15 -27 -24 -5 -3 9 -18 15 -39 15 -19 0
-50 7 -70 15 -19 8 -72 17 -118 20 -46 3 -101 11 -122 17 -31 10 -40 9 -47 -2
-7 -12 -10 -11 -16 3 -7 18 -34 24 -34 7 0 -5 -7 -10 -17 -10 -9 0 -31 -11
-49 -25 -18 -14 -42 -25 -53 -25 -18 0 -20 4 -14 33 3 17 7 33 9 35 1 2 -4 19
-12 37 -16 40 -19 68 -4 45 8 -12 10 -11 10 7 0 12 -5 23 -12 25 -8 3 -8 9 -2
19 5 8 9 21 10 29 1 8 2 22 3 31 0 9 10 19 21 22 15 4 19 13 18 43 -1 22 1 46
5 54 3 8 8 29 12 45 4 17 16 40 27 53 12 12 16 22 10 22 -6 0 -14 -5 -17 -10
-4 -6 -11 -8 -16 -5 -5 4 -9 1 -9 -4 0 -6 -8 -11 -17 -11 -15 1 -15 3 5 19 15
14 18 21 10 25 -9 3 -7 9 6 20 11 9 16 16 12 16 -4 0 9 15 30 34 39 36 34 54
-9 31 -15 -8 -27 -11 -28 -7 0 4 -2 15 -4 24 -3 14 0 16 15 8 25 -13 30 -13
30 5 0 14 33 38 42 30 2 -2 9 5 16 15 9 16 9 20 0 20 -6 0 4 11 23 25 19 14
34 29 34 33 0 4 3 12 7 17 4 6 3 17 -3 25 -14 23 -11 29 11 23 14 -4 20 0 20
11 0 10 4 15 10 11 10 -6 49 13 65 33 6 7 21 11 35 10 18 -2 28 3 35 20 5 12
16 20 23 17 7 -2 15 2 18 10 4 8 17 15 29 15 32 0 38 13 14 28 -16 10 -19 9
-19 -3 0 -9 -9 -15 -22 -15 -21 0 -21 0 -2 15 12 9 14 14 6 15 -7 0 -10 5 -7
10 4 6 10 8 14 5 5 -2 23 2 40 11 17 8 36 12 42 8 7 -4 9 -3 6 4 -10 15 144
61 239 72 116 13 248 -3 371 -45 163 -56 370 -181 524 -318 80 -71 101 -84
125 -81 56 6 181 6 340 0 171 -6 220 0 218 27 -1 10 4 17 12 17 8 0 14 6 14
14 0 23 48 74 85 92 38 17 106 13 134 -8 41 -32 70 -73 76 -109 4 -21 11 -42
16 -45 6 -3 58 -5 117 -5 103 1 155 11 233 45 43 18 100 7 136 -27 30 -27 98
-36 197 -26 44 5 119 6 166 4 47 -3 153 -6 235 -6 143 -2 153 -1 214 26 60 25
67 26 105 14 22 -7 54 -23 71 -35 26 -17 47 -21 121 -22 49 -1 151 -4 227 -8
l137 -6 0 445 c0 494 5 462 -65 452 -143 -19 -271 -21 -320 -5 -19 6 -42 11
-52 10 -10 -1 -20 -1 -23 0 -19 8 -146 7 -156 0 -6 -6 -19 -8 -28 -4 -13 5
-15 2 -10 -12 4 -11 15 -28 24 -39 31 -37 48 -97 38 -135 -13 -46 -78 -110
-113 -110 -14 0 -24 -4 -21 -9 3 -5 -4 -11 -17 -15 -32 -8 -45 -6 -22 4 17 7
17 9 3 9 -10 1 -18 5 -18 10 0 5 -9 7 -20 4 -13 -4 -20 0 -20 10 0 8 -6 20
-13 26 -8 6 -22 38 -32 70 -17 57 -17 62 -1 108 26 75 26 76 -24 85 -25 5 -57
7 -72 5 -16 -2 -28 -1 -28 2 0 3 -143 7 -318 8 -174 1 -391 5 -482 8 -91 3
-241 8 -335 10 -93 2 -170 5 -170 5 0 1 -45 3 -100 5 -55 2 -118 6 -140 9 -22
4 -78 11 -125 17 -46 5 -89 14 -96 19 -6 6 -34 11 -62 12 -43 2 -54 -2 -74
-23 -33 -35 -65 -41 -128 -25 -30 8 -59 12 -66 9 -7 -2 -22 1 -34 7 -11 6 -35
12 -53 14 -63 5 -216 56 -247 82 -8 7 -27 14 -42 16 -15 2 -30 7 -34 11 -14
13 -26 7 -68 -38 -24 -25 -50 -45 -58 -45 -8 0 -23 -9 -32 -19 -10 -11 -24
-17 -32 -14 -8 3 -14 1 -14 -5 0 -5 -24 -25 -52 -43 -100 -62 -101 -63 -93
-151 6 -69 4 -83 -15 -120 -25 -48 -51 -70 -95 -80 -31 -7 -122 8 -141 23 -6
5 -14 6 -17 3 -11 -12 -87 -22 -93 -13 -3 5 2 12 10 15 21 8 20 21 -1 27 -13
3 -9 8 15 17 l33 12 -21 23 c-12 13 -17 25 -12 29 5 3 7 18 5 33 -3 22 3 33
31 53 19 14 32 27 30 29 -2 2 8 17 21 33 14 16 25 34 25 39 0 6 4 8 9 5 17
-11 95 32 138 74 23 23 46 39 51 36 5 -3 15 6 22 19 11 21 33 31 62 26 23 -3
60 23 73 51 9 18 22 44 31 58 24 41 11 81 -47 144 -30 31 -58 56 -64 56 -6 0
-11 9 -12 20 -2 21 -33 69 -45 70 -5 0 -8 -12 -8 -26 0 -14 -5 -34 -11 -45 -7
-13 -7 -24 -1 -32 26 -31 30 -142 8 -205 -19 -54 -63 -97 -82 -81 -10 8 -14 8
-14 0 0 -6 -4 -11 -10 -11 -5 0 -10 7 -10 15 0 8 -7 15 -15 15 -8 0 -15 4 -15
9 0 5 -7 11 -14 14 -10 4 -13 1 -9 -9 3 -8 -1 -14 -10 -14 -10 0 -13 8 -9 25
3 16 11 25 24 25 13 0 17 4 11 13 -4 6 -8 15 -8 19 0 3 -4 10 -9 15 -5 5 -7
-1 -3 -14 3 -13 1 -23 -5 -23 -5 0 -12 9 -15 20 -3 11 -12 20 -20 20 -10 0
-12 -6 -7 -22 3 -13 10 -24 13 -26 4 -1 5 -18 3 -37 -2 -19 -8 -33 -12 -30 -4
3 -15 -6 -24 -20 -9 -14 -25 -25 -36 -25 -11 0 -20 -4 -20 -8 0 -14 -61 -12
-97 3 -18 8 -40 12 -48 9 -8 -3 -20 -2 -27 3 -23 14 -92 28 -125 25 -33 -3
-47 -22 -16 -22 28 0 5 -13 -29 -17 -74 -8 -125 -8 -163 -1 -22 4 -74 12 -115
19 -41 6 -94 18 -117 25 -41 13 -44 13 -70 -12 -27 -25 -32 -26 -108 -20 -95
8 -148 13 -155 16 -3 1 -8 2 -13 1 -4 -1 -24 6 -43 14 -20 8 -47 15 -60 15
-12 0 -25 4 -28 9 -8 13 -44 2 -85 -26 -48 -33 -122 -26 -166 16 -16 15 -39
32 -50 36 -18 7 -18 9 -2 12 19 5 13 23 -8 23 -8 0 -26 12 -40 26 -14 14 -32
23 -40 20 -9 -3 -15 1 -15 9 0 17 -16 20 -26 4 -9 -14 -51 -3 -77 21 -11 11
-24 20 -29 20 -4 0 -8 5 -8 10 0 14 -38 50 -53 50 -7 0 -18 -5 -23 -10 -12
-12 -74 -2 -74 11 0 5 -6 9 -12 9 -28 0 -125 89 -151 138 -27 51 -43 132 -26
132 14 0 11 20 -5 26 -8 3 -27 -4 -43 -15 -16 -12 -52 -24 -80 -27 -45 -6 -55
-3 -85 20 -33 25 -41 26 -156 26 l-122 0 0 -739z m2587 -83 c-3 -8 -6 -5 -6 6
-1 11 2 17 5 13 3 -3 4 -12 1 -19z m-686 -211 c20 -16 48 -102 55 -175 10 -95
-34 -162 -116 -177 -72 -13 -147 47 -157 125 -6 44 12 131 37 174 34 61 132
90 181 53z m641 -7 c17 -16 24 -17 36 -7 12 10 14 9 10 -3 -2 -8 -14 -19 -26
-25 -12 -5 -22 -19 -22 -30 0 -22 -20 -59 -20 -37 0 6 -6 12 -14 12 -8 0 -17
-6 -19 -12 -3 -8 -6 -6 -6 5 -1 9 -5 17 -9 17 -18 0 -6 55 14 65 11 5 19 16
16 23 -6 19 16 14 40 -8z m3402 -7 c14 -36 43 -82 49 -77 3 4 14 -1 23 -11 14
-13 15 -18 4 -25 -9 -5 -11 -20 -7 -47 8 -48 -29 -132 -71 -159 -41 -27 -131
-25 -162 4 -13 12 -28 22 -32 22 -5 0 -14 12 -21 27 -6 15 -22 37 -35 50 -13
13 -21 27 -18 31 3 5 -5 8 -17 8 -15 -1 -22 4 -21 17 2 13 -3 16 -18 11 -35
-11 -15 19 28 41 21 11 48 28 59 38 11 10 32 21 48 24 15 3 30 10 33 14 3 5
16 9 30 9 15 0 24 6 24 15 0 13 7 15 36 9 27 -5 35 -4 30 5 -4 7 0 11 12 11
11 0 23 -8 26 -17z m-564 -3 c0 -6 11 -8 25 -4 21 5 25 3 26 -17 0 -13 3 -18
6 -11 2 6 10 12 17 12 16 0 56 -76 45 -87 -4 -4 -4 -25 0 -46 5 -20 6 -37 2
-37 -4 0 -12 -19 -19 -42 -20 -72 -119 -124 -183 -97 -45 18 -95 71 -103 110
-15 67 -17 102 -5 110 6 3 12 18 12 32 0 16 4 24 12 21 7 -3 15 6 19 22 6 21
9 25 16 14 7 -11 13 -12 32 -2 13 6 32 11 43 9 12 -1 19 3 18 11 -2 6 6 12 17
12 11 0 20 -5 20 -10z m150 -40 c0 -5 -4 -10 -10 -10 -5 0 -10 5 -10 10 0 6 5
10 10 10 6 0 10 -4 10 -10z m480 6 c0 -3 -4 -8 -10 -11 -5 -3 -10 -1 -10 4 0
6 5 11 10 11 6 0 10 -2 10 -4z m-3500 -161 c0 -8 -4 -15 -10 -15 -5 0 -10 7
-10 15 0 8 5 15 10 15 6 0 10 -7 10 -15z m-54 -20 c-11 -8 -29 -15 -40 -14
-17 0 -15 3 9 14 39 18 55 18 31 0z m-136 -39 c0 -2 -7 -6 -15 -10 -8 -3 -15
-1 -15 4 0 6 7 10 15 10 8 0 15 -2 15 -4z m-1355 -88 c67 -63 71 -181 7 -226
-37 -27 -106 -33 -144 -15 -44 23 -90 99 -85 143 9 84 57 129 140 130 40 0 53
-5 82 -32z m1352 -44 c-3 -3 -12 -4 -19 -1 -8 3 -5 6 6 6 11 1 17 -2 13 -5z
m-277 -105 c-7 -11 -14 -18 -17 -15 -3 3 0 12 7 21 18 21 23 19 10 -6z m90
-139 c0 -5 -5 -10 -11 -10 -5 0 -7 5 -4 10 3 6 8 10 11 10 2 0 4 -4 4 -10z
m-582 -419 c6 -1 12 -8 12 -17 0 -12 6 -15 24 -10 16 4 26 1 30 -10 3 -8 10
-13 16 -9 17 10 80 -38 80 -62 0 -14 6 -23 15 -23 9 0 15 -9 14 -22 0 -22 -1
-22 -9 -3 -7 17 -9 15 -9 -11 -1 -20 5 -34 15 -38 14 -5 15 -24 9 -159 -7
-159 -20 -257 -35 -257 -5 0 -7 -6 -4 -14 4 -10 -6 -14 -42 -14 -38 -1 -51 -7
-75 -32 -16 -16 -31 -30 -34 -30 -10 0 -5 36 7 48 17 17 6 23 -28 13 -36 -10
-94 -3 -94 13 0 6 -5 3 -11 -8 -9 -15 -13 -16 -21 -5 -6 9 -7 -1 -3 -29 6 -35
2 -50 -19 -87 -35 -60 -60 -75 -122 -75 -60 0 -66 -4 -52 -36 10 -21 8 -27
-11 -41 -17 -11 -20 -18 -11 -23 19 -12 -43 -41 -88 -42 -66 -1 -78 2 -100 23
-12 11 -26 18 -31 14 -5 -3 -15 8 -23 25 -7 16 -16 30 -20 30 -4 0 -7 10 -6
23 0 49 8 65 35 72 15 3 32 13 37 21 9 11 19 12 46 4 19 -5 49 -8 67 -6 17 1
31 0 31 -3 -2 -25 3 -34 13 -24 8 8 8 20 -1 45 -8 22 -10 52 -6 81 8 51 36 79
105 103 32 11 36 16 34 44 -1 20 -9 37 -22 47 -12 8 -19 19 -15 24 9 15 -74 1
-101 -17 -12 -8 -25 -11 -30 -7 -4 5 -4 -2 -1 -15 5 -15 3 -24 -7 -28 -8 -3
-17 -19 -21 -36 -6 -32 -50 -91 -60 -81 -3 3 -14 -1 -23 -9 -33 -29 -105 -59
-151 -64 -45 -4 -47 -3 -101 53 -31 32 -62 57 -68 55 -7 -2 -13 1 -13 7 0 14
-30 7 -41 -10 -6 -10 -9 -10 -9 -1 0 18 -31 15 -47 -5 -8 -10 -11 -12 -7 -4 5
10 1 11 -15 6 -11 -3 -26 -3 -33 2 -7 4 -20 8 -28 9 -35 1 -97 16 -123 30 -15
9 -35 13 -43 10 -11 -4 -13 0 -8 19 5 19 2 25 -11 25 -12 0 -15 5 -10 19 3 11
2 22 -4 25 -5 4 -5 20 1 43 5 21 12 54 15 73 3 19 10 38 16 42 7 4 6 12 -3 23
-11 13 -11 20 0 39 7 13 9 29 6 35 -6 10 14 16 38 12 4 -1 15 4 24 11 12 10
16 10 20 0 4 -13 71 55 72 74 0 16 83 54 117 54 43 0 94 -38 123 -92 24 -47
24 -47 70 -42 103 11 174 -101 124 -198 -12 -23 -13 -33 -4 -42 14 -14 107
-13 122 2 7 7 20 12 30 12 11 0 18 7 18 19 0 11 9 23 20 26 11 4 20 15 20 26
0 25 25 65 67 106 18 18 33 39 33 48 0 8 8 15 18 15 16 1 15 2 -2 15 -16 12
-17 17 -6 30 7 8 9 15 4 15 -5 0 -1 7 10 15 10 7 15 18 12 23 -3 5 1 15 10 22
8 7 13 19 10 26 -9 23 13 26 26 4 18 -29 30 -25 22 8 -7 25 -6 26 10 13 14
-12 19 -12 25 -2 5 7 32 15 61 17 29 2 55 6 58 9 3 3 17 3 31 1 14 -2 32 -5
39 -5z m569 -147 c-3 -3 -12 -4 -19 -1 -8 3 -5 6 6 6 11 1 17 -2 13 -5z m612
-51 c0 -25 -1 -26 -9 -8 -12 27 -12 35 0 35 6 0 10 -12 9 -27z m-2422 -45 c-3
-8 -6 -5 -6 6 -1 11 2 17 5 13 3 -3 4 -12 1 -19z m2102 11 c36 -6 76 -18 89
-25 12 -8 27 -12 32 -9 5 3 11 1 14 -4 7 -11 -28 -21 -78 -21 -50 0 -168 -21
-180 -32 -14 -12 -26 -10 -23 5 1 6 -4 11 -11 9 -8 -1 -11 2 -8 7 4 5 2 12 -4
16 -18 11 -11 30 18 47 33 20 65 21 151 7z m269 -65 c14 8 46 -19 38 -32 -10
-17 -46 -15 -52 3 -4 8 -12 15 -20 15 -15 0 -19 12 -7 23 3 4 12 2 19 -4 7 -6
17 -8 22 -5z m-211 -20 c-3 -3 -12 -4 -19 -1 -8 3 -5 6 6 6 11 1 17 -2 13 -5z
m-37 -24 c0 -5 -7 -10 -15 -10 -8 0 -15 5 -15 10 0 6 7 10 15 10 8 0 15 -4 15
-10z m80 0 c-13 -8 -12 -10 3 -10 9 0 17 -5 17 -10 0 -7 -6 -7 -19 0 -11 5
-30 10 -43 11 -22 0 -22 1 -3 9 11 5 29 9 40 9 17 1 17 -1 5 -9z m243 -50 c10
-9 0 -50 -12 -50 -5 0 -21 16 -35 35 l-27 35 33 -6 c18 -4 37 -10 41 -14z
m-109 -16 c4 -12 2 -12 -14 -4 -11 6 -20 15 -20 20 0 14 28 1 34 -16z m-170
-9 c-18 -28 -37 -28 -42 -1 -3 14 1 17 17 11 12 -4 21 -2 21 4 0 6 5 11 10 11
6 0 3 -11 -6 -25z m-379 -30 c0 -27 -39 -37 -53 -14 -11 17 -9 21 10 29 30 12
43 7 43 -15z m483 13 c21 -21 13 -38 -18 -38 -25 0 -30 4 -30 25 0 27 26 35
48 13z m119 -4 c-3 -3 -12 -4 -19 -1 -8 3 -5 6 6 6 11 1 17 -2 13 -5z m-644
-67 c-17 -10 -18 -9 -28 22 l-7 24 25 -19 c21 -16 22 -21 10 -27z m580 36 c-7
-2 -19 -2 -25 0 -7 3 -2 5 12 5 14 0 19 -2 13 -5z m-163 -18 c19 -17 30 -18
163 -11 88 5 97 4 86 -10 -8 -9 -25 -14 -46 -12 -21 2 -38 -3 -44 -12 -8 -12
-12 -12 -16 -2 -4 11 -8 11 -22 -1 -9 -7 -51 -24 -93 -37 -79 -24 -100 -40
-51 -40 20 0 24 -3 16 -11 -13 -13 -135 -28 -170 -21 -37 7 -27 22 15 21 20 0
51 4 67 9 l30 9 -30 8 c-63 14 -138 64 -81 53 14 -3 26 -2 26 1 0 3 25 6 55 5
31 0 58 3 61 7 2 5 12 6 22 3 16 -5 16 -5 0 9 -17 14 -25 47 -11 47 3 0 14 -7
23 -15z m-50 -15 c0 -5 -4 -10 -9 -10 -6 0 -13 5 -16 10 -3 6 1 10 9 10 9 0
16 -4 16 -10z m-350 -30 c12 -8 12 -10 -2 -15 -24 -9 -61 -2 -66 13 -4 14 45
17 68 2z m41 -57 c-18 -31 -35 -49 -53 -56 -25 -9 -33 11 -12 34 9 10 13 19 8
20 -11 1 35 17 54 18 9 1 10 -4 3 -16z m534 -23 c4 -7 -3 -7 -19 0 -14 5 -26
6 -26 1 0 -5 -10 -11 -22 -14 -13 -2 -31 -8 -41 -12 -13 -5 -16 -3 -11 8 3 9
19 19 35 22 16 4 31 11 34 16 7 10 40 -4 50 -21z m152 4 c-3 -3 -12 -4 -19 -1
-8 3 -5 6 6 6 11 1 17 -2 13 -5z m-317 -48 c0 -2 -9 -6 -20 -9 -11 -3 -20 -1
-20 4 0 5 9 9 20 9 11 0 20 -2 20 -4z m-780 -46 c0 -5 3 -15 6 -24 4 -9 1 -16
-6 -16 -6 0 -14 9 -17 19 -3 12 -11 17 -20 14 -10 -4 -11 -9 -4 -16 6 -6 11
-15 11 -19 0 -16 -22 -7 -48 19 l-27 28 30 5 c35 7 75 1 75 -10z m570 10 c0
-5 -4 -10 -10 -10 -5 0 -10 5 -10 10 0 6 5 10 10 10 6 0 10 -4 10 -10z m-268
-104 c10 -7 15 -15 12 -18 -9 -10 -42 3 -48 18 -7 18 13 18 36 0z m726 -42
c-2 -23 -8 -29 -27 -28 -32 0 -36 39 -7 59 25 18 39 6 34 -31z m-1039 -8 c8
-9 10 -28 5 -50 -5 -29 -3 -36 10 -36 27 0 30 -29 6 -55 -12 -13 -19 -28 -16
-34 4 -5 0 -28 -8 -52 -8 -23 -12 -48 -9 -55 3 -8 0 -14 -7 -14 -8 0 -10 -12
-5 -40 4 -21 4 -48 0 -59 -7 -24 -39 -21 -43 5 -2 10 -5 26 -8 34 -14 40 -13
166 1 190 8 14 18 33 21 43 3 9 10 17 14 17 5 0 4 15 -1 33 -6 21 -6 41 2 60
13 30 21 33 38 13z m1428 -72 c-3 -3 -12 -4 -19 -1 -8 3 -5 6 6 6 11 1 17 -2
13 -5z m-10 -90 c-3 -3 -12 -4 -19 -1 -8 3 -5 6 6 6 11 1 17 -2 13 -5z m103
-23 c0 -11 -4 -23 -10 -26 -5 -3 -10 -1 -10 5 0 7 -8 9 -20 5 -14 -4 -20 -2
-20 9 0 13 9 17 53 25 4 0 7 -8 7 -18z m30 -1 c0 -5 -2 -10 -4 -10 -3 0 -8 5
-11 10 -3 6 -1 10 4 10 6 0 11 -4 11 -10z m-55 -60 c3 -5 1 -10 -4 -10 -6 0
-11 5 -11 10 0 6 2 10 4 10 3 0 8 -4 11 -10z m-1459 -197 c17 -67 -30 -139
-85 -131 -23 3 -31 1 -31 -11 -1 -14 -2 -14 -9 -1 -5 8 -12 26 -16 39 -6 21
-5 23 13 19 17 -5 22 0 27 22 3 16 13 34 21 41 8 6 14 17 14 24 0 13 18 21 48
21 7 1 15 -10 18 -23z m19 -131 c-2 -9 -4 -32 -4 -50 -2 -54 -50 -54 -51 1 0
21 40 78 51 72 4 -3 6 -13 4 -23z m250 -2 c3 -5 -1 -10 -10 -10 -9 0 -13 5
-10 10 3 6 8 10 10 10 2 0 7 -4 10 -10z m573 -8 c2 -7 -3 -12 -12 -12 -9 0
-16 7 -16 16 0 17 22 14 28 -4z m52 8 c0 -5 -4 -10 -9 -10 -6 0 -13 5 -16 10
-3 6 1 10 9 10 9 0 16 -4 16 -10z m-620 -56 c0 -11 5 -14 16 -10 19 7 43 -19
44 -46 0 -10 4 -18 10 -18 8 0 43 -54 45 -70 0 -3 4 -10 8 -17 4 -6 3 -14 -2
-18 -11 -6 4 -49 26 -76 10 -12 10 -18 0 -28 -9 -9 -9 -14 3 -21 12 -7 12 -10
-4 -16 -12 -5 -22 -2 -28 9 -5 10 -18 17 -29 17 -11 0 -18 4 -15 9 4 5 2 20
-3 33 -6 16 -4 30 7 45 14 22 13 23 -22 23 -34 0 -36 1 -30 27 5 17 2 30 -7
37 -16 13 -21 28 -23 73 -1 18 -5 35 -9 39 -10 11 -9 24 3 24 6 0 10 -7 10
-16z m85 -14 c3 -5 -1 -10 -9 -10 -9 0 -16 5 -16 10 0 6 4 10 9 10 6 0 13 -4
16 -10z m125 -430 c0 -5 -5 -10 -11 -10 -5 0 -7 5 -4 10 3 6 8 10 11 10 2 0 4
-4 4 -10z m477 -212 c-3 -8 -6 -5 -6 6 -1 11 2 17 5 13 3 -3 4 -12 1 -19z
m-423 -416 c-20 -5 -39 12 -30 27 4 6 14 4 27 -7 17 -15 18 -17 3 -20z m-46
-10 c6 -18 -15 -14 -22 4 -4 10 -1 14 6 12 6 -2 14 -10 16 -16z m520 6 c-6
-18 -28 -21 -28 -4 0 9 7 16 16 16 9 0 14 -5 12 -12z m-358 -28 c0 -5 -7 -10
-15 -10 -8 0 -15 5 -15 10 0 6 7 10 15 10 8 0 15 -4 15 -10z m235 0 c3 -5 -3
-10 -15 -10 -12 0 -18 5 -15 10 3 6 10 10 15 10 5 0 12 -4 15 -10z m-30 -31
c11 -17 0 -20 -21 -4 -17 13 -17 14 -2 15 9 0 20 -5 23 -11z m75 -4 c0 -8 -4
-15 -10 -15 -5 0 -10 7 -10 15 0 8 5 15 10 15 6 0 10 -7 10 -15z m-426 -10 c3
-8 2 -15 -2 -15 -4 0 -17 -3 -29 -6 -14 -4 -23 -2 -23 5 0 6 7 11 15 11 8 0
15 5 15 10 0 15 17 12 24 -5z m-64 -59 c0 -8 6 -16 13 -19 6 -2 9 -8 5 -12 -8
-9 -38 18 -38 34 0 6 5 11 10 11 6 0 10 -6 10 -14z m-262 -206 c-2 -7 -10 1
-17 16 -12 27 -11 28 4 12 10 -9 16 -21 13 -28z m42 -59 c-1 -10 -6 -7 -15 9
-19 33 -18 50 0 26 8 -11 15 -27 15 -35z m150 -121 c0 -5 -4 -10 -10 -10 -5 0
-10 5 -10 10 0 6 5 10 10 10 6 0 10 -4 10 -10z"/>
<path d="M633 4298 l-32 -8 16 -53 c17 -58 31 -82 61 -103 19 -13 24 -12 48
10 l28 23 -37 44 c-21 24 -41 55 -45 69 -6 24 -10 26 -39 18z"/>
<path d="M698 4103 c7 -3 16 -2 19 1 4 3 -2 6 -13 5 -11 0 -14 -3 -6 -6z"/>
<path d="M1170 3830 c0 -5 5 -10 10 -10 6 0 10 5 10 10 0 6 -4 10 -10 10 -5 0
-10 -4 -10 -10z"/>
<path d="M808 6743 c7 -3 16 -2 19 1 4 3 -2 6 -13 5 -11 0 -14 -3 -6 -6z"/>
<path d="M1010 6747 c0 -2 11 -17 25 -33 14 -16 25 -33 25 -37 0 -11 41 1 57
17 7 6 10 20 7 32 -5 17 -14 21 -60 23 -30 1 -54 0 -54 -2z m110 -37 c0 -5 -2
-10 -4 -10 -3 0 -8 5 -11 10 -3 6 -1 10 4 10 6 0 11 -4 11 -10z"/>
<path d="M6358 6743 c7 -3 16 -2 19 1 4 3 -2 6 -13 5 -11 0 -14 -3 -6 -6z"/>
<path d="M6388 6731 c-7 -12 -18 -21 -25 -21 -7 0 -13 -7 -13 -15 0 -8 5 -15
10 -15 6 0 10 -7 10 -15 0 -19 -7 -19 -27 1 -14 13 -14 20 -4 36 13 22 9 34
-8 23 -6 -3 -11 -18 -11 -33 0 -19 -3 -23 -9 -13 -5 7 -14 10 -21 6 -7 -5 -8
-10 -2 -14 6 -4 6 -15 -1 -31 l-11 -25 -4 28 c-5 37 -18 34 -26 -5 -6 -32 -6
-32 -22 -10 -8 12 -12 27 -8 33 4 7 1 10 -7 7 -8 -3 -14 -13 -14 -24 0 -12
-10 -22 -24 -26 -31 -9 -38 -3 -21 17 19 23 -19 19 -47 -4 -29 -25 -31 -55 -3
-48 13 3 20 0 20 -9 0 -8 7 -14 15 -14 8 0 15 -6 15 -13 0 -8 9 -22 20 -32 24
-22 127 -65 156 -65 11 0 24 -4 30 -10 6 -6 25 -4 54 5 25 7 41 14 36 14 -5 1
-1 10 9 21 18 19 17 20 -6 21 -16 1 -18 3 -7 6 10 2 15 10 11 19 -3 8 0 21 7
28 8 11 9 20 0 35 -11 22 -30 28 -30 11 0 -5 -7 -10 -16 -10 -12 0 -9 9 13 38
22 28 28 47 27 77 -1 35 -4 40 -27 43 -18 2 -30 -3 -39 -17z m24 -36 c0 -5 -5
-11 -11 -13 -6 -2 -11 4 -11 13 0 9 5 15 11 13 6 -2 11 -8 11 -13z m-62 -65
c0 -5 -2 -10 -4 -10 -3 0 -8 5 -11 10 -3 6 -1 10 4 10 6 0 11 -4 11 -10z m97
-62 c-3 -8 -6 -5 -6 6 -1 11 2 17 5 13 3 -3 4 -12 1 -19z m-17 -98 c0 -5 -2
-10 -4 -10 -3 0 -8 5 -11 10 -3 6 -1 10 4 10 6 0 11 -4 11 -10z"/>
<path d="M6460 6720 c0 -5 5 -10 10 -10 6 0 10 5 10 10 0 6 -4 10 -10 10 -5 0
-10 -4 -10 -10z"/>
<path d="M794 6695 c4 -16 2 -25 -5 -25 -8 0 -8 -4 1 -15 6 -8 9 -19 5 -25 -4
-7 2 -18 14 -26 12 -8 21 -24 21 -36 0 -11 8 -22 20 -25 11 -3 21 -9 21 -14 1
-5 2 -15 3 -21 1 -7 8 -12 16 -10 7 2 16 -1 19 -5 3 -4 24 -17 45 -28 22 -11
41 -28 42 -38 1 -10 10 -27 18 -36 9 -10 16 -22 16 -28 0 -14 24 -23 60 -23
24 0 28 5 33 38 7 41 0 82 -14 82 -5 0 -9 9 -9 19 0 11 -5 23 -11 27 -6 3 -9
15 -6 25 3 10 2 21 -3 24 -4 3 -11 17 -15 32 -14 59 -105 101 -141 66 -13 -13
-17 -14 -24 -3 -5 8 -6 19 -2 25 3 5 -2 4 -11 -3 -20 -17 -40 -6 -34 18 5 20
-11 30 -45 30 -17 0 -19 -4 -14 -25z"/>
<path d="M2656 6366 c-11 -17 -12 -27 -5 -32 6 -4 14 -1 18 5 4 6 15 9 23 6 9
-4 19 -2 23 4 3 7 -2 11 -14 11 -14 0 -19 5 -15 15 10 24 -12 17 -30 -9z"/>
<path d="M2190 5051 c0 -18 18 -21 30 -6 10 13 9 15 -9 15 -11 0 -21 -4 -21
-9z"/>
<path d="M4103 4743 c-3 -8 -2 -38 3 -66 l9 -52 58 -3 c31 -2 57 -8 57 -13 0
-6 5 -7 12 -3 17 11 397 13 404 3 3 -5 10 -7 15 -3 5 3 81 5 167 4 279 -4 526
-9 559 -13 17 -2 29 1 26 6 -3 5 9 6 28 2 37 -8 95 -10 827 -20 l482 -7 0 51
0 51 -87 0 c-49 0 -133 2 -188 5 -55 2 -215 7 -355 10 -140 3 -288 8 -327 10
-40 2 -75 -1 -79 -6 -3 -5 -11 -6 -17 -2 -18 11 -33 12 -152 12 -125 0 -122 0
-190 5 -27 2 -171 7 -319 10 -148 4 -273 9 -278 12 -5 3 -15 0 -23 -6 -8 -6
-18 -9 -24 -6 -12 8 -116 16 -276 21 -71 3 -174 7 -228 9 -80 3 -99 1 -104
-11z"/>
<path d="M3499 4576 c-2 -2 -33 -6 -69 -10 -84 -7 -110 -15 -110 -32 0 -8 -7
-17 -15 -20 -8 -4 -15 -12 -15 -19 0 -8 -10 -22 -23 -32 -32 -26 -57 -68 -59
-100 -2 -16 -13 -36 -25 -46 -13 -10 -23 -26 -23 -36 0 -9 -4 -21 -10 -27 -13
-13 -15 -74 -2 -105 6 -15 23 -39 37 -53 26 -26 26 -26 19 -4 -3 13 -10 25
-13 28 -4 3 -13 24 -20 47 -11 34 -12 48 -1 72 7 17 16 31 20 31 4 0 11 11 14
25 4 16 19 30 42 40 19 8 33 19 29 25 -3 5 -1 10 4 10 20 0 11 -30 -14 -52
-24 -21 -35 -46 -15 -33 6 3 10 -1 10 -10 0 -9 -4 -13 -10 -10 -5 3 -10 -3
-10 -14 0 -15 6 -21 21 -21 13 0 18 4 13 13 -5 9 -4 9 6 0 17 -15 5 -43 -20
-50 -28 -7 -25 -23 4 -23 13 0 43 -7 66 -15 55 -19 107 -19 127 0 22 22 94 17
101 -7 5 -20 22 -25 22 -5 0 9 3 8 9 -2 7 -10 22 -12 64 -7 35 5 57 3 62 -3 3
-6 19 -11 36 -11 51 0 34 -29 -28 -50 -24 -7 -43 -18 -43 -23 0 -6 -35 -8 -88
-5 -79 4 -96 8 -170 45 -49 25 -90 39 -102 36 -22 -6 -26 -18 -10 -28 6 -3 7
-17 4 -31 -4 -14 -2 -24 5 -24 6 0 11 7 11 15 0 17 15 16 95 -10 54 -18 255
-30 255 -16 0 4 27 14 60 21 53 11 60 16 60 36 0 25 10 30 26 14 5 -5 25 -12
43 -14 18 -2 38 -9 44 -15 6 -6 18 -11 27 -11 20 0 60 -33 60 -49 0 -19 17
-12 34 14 20 30 20 36 2 29 -7 -3 -16 2 -19 10 -4 9 -18 16 -35 16 -43 0 -128
28 -143 47 -13 15 -11 16 11 9 45 -12 142 -27 148 -22 11 11 -20 34 -39 29
-31 -8 -179 30 -179 46 0 9 7 11 24 7 14 -3 27 -2 31 3 6 11 -31 82 -49 93 -7
5 -5 12 9 21 17 13 22 13 42 -2 12 -9 23 -22 23 -28 0 -8 13 -13 30 -13 17 0
30 -5 30 -11 0 -5 5 -7 11 -3 6 3 15 0 20 -7 6 -10 9 -11 9 -1 0 6 7 12 15 12
8 0 15 -8 15 -17 0 -14 2 -15 13 -4 10 10 9 15 -5 25 -19 14 -25 32 -8 21 6
-3 10 -1 10 4 0 6 -4 11 -10 11 -5 0 -7 7 -3 15 3 10 0 15 -8 13 -9 -2 -13 4
-11 18 1 12 -4 27 -13 34 -8 7 -15 22 -16 34 0 20 -1 20 -8 1 l-8 -20 -5 20
c-5 16 -6 17 -7 3 -1 -22 -21 -24 -22 -3 -1 8 -2 20 -3 26 0 7 -8 15 -16 18
-16 6 -52 35 -80 64 -18 18 -88 33 -195 41 -33 2 -67 7 -76 11 -8 3 -17 4 -20
1z m194 -179 c24 -24 18 -29 -19 -18 -16 4 -64 11 -108 16 -89 8 -91 23 -5 34
59 7 103 -3 132 -32z m-164 -54 c1 19 23 22 53 6 15 -8 18 -8 14 0 -5 7 -1 8
11 4 33 -11 35 -15 16 -33 -15 -13 -31 -16 -74 -12 -55 4 -56 5 -45 28 10 20
12 21 18 6 6 -16 7 -16 7 1z m9 -101 c3 -9 -2 -13 -14 -10 -9 1 -19 9 -22 16
-3 9 2 13 14 10 9 -1 19 -9 22 -16z m-114 -29 c7 -21 5 -22 -51 -21 -32 1 -50
3 -40 6 10 2 29 15 43 29 27 26 37 23 48 -14z m225 8 c12 -8 12 -13 -2 -35
-11 -16 -23 -23 -32 -20 -18 7 -18 7 -3 39 12 27 16 29 37 16z"/>
<path d="M2110 4549 c0 -5 5 -7 10 -4 6 3 10 8 10 11 0 2 -4 4 -10 4 -5 0 -10
-5 -10 -11z"/>
<path d="M3190 4480 c0 -5 5 -10 11 -10 5 0 7 5 4 10 -3 6 -8 10 -11 10 -2 0
-4 -4 -4 -10z"/>
<path d="M4938 4475 c-3 -3 -21 -7 -39 -9 -50 -5 -99 -18 -99 -25 0 -3 16 -16
35 -28 44 -29 57 -50 91 -146 l27 -78 -27 -72 c-15 -40 -31 -80 -36 -89 -6
-11 -6 -19 0 -23 6 -3 10 -14 10 -24 0 -13 16 -26 51 -40 41 -18 54 -30 70
-64 26 -58 24 -81 -11 -131 -31 -45 -55 -56 -130 -56 -31 0 -44 7 -75 41 -37
42 -38 42 -32 110 4 50 2 71 -8 79 -15 13 -51 22 -82 22 -13 0 -20 4 -17 9 3
5 -2 6 -10 3 -10 -4 -26 5 -43 25 -15 17 -33 31 -40 31 -7 0 -13 5 -13 10 0 6
-11 10 -25 10 -16 0 -25 6 -25 16 0 11 -6 15 -20 11 -13 -3 -20 0 -20 9 0 8 5
14 10 14 14 0 13 27 -2 36 -7 4 -8 3 -4 -4 4 -7 2 -12 -3 -12 -6 0 -11 -10
-11 -22 0 -24 29 -112 30 -90 0 6 5 12 10 12 6 0 10 -22 10 -50 0 -36 5 -52
18 -59 15 -9 15 -12 2 -22 -12 -9 -11 -10 8 -6 12 3 20 1 16 -4 -3 -5 1 -9 8
-9 8 0 5 -5 -5 -11 -10 -6 -35 -8 -55 -5 -21 4 -47 6 -59 6 -12 0 -25 5 -28
10 -11 17 -44 11 -55 -10 -7 -12 -10 -63 -9 -123 3 -104 -19 -274 -45 -352 -7
-22 -17 -65 -20 -95 -9 -70 -33 -100 -83 -104 -21 -2 -44 2 -50 7 -15 11 -17
49 -4 62 9 9 25 183 23 250 -3 139 -17 321 -26 363 -4 17 -9 53 -11 78 -1 25
-5 48 -8 51 -13 12 -27 -10 -27 -43 0 -19 -4 -34 -10 -34 -18 0 -15 61 3 72 9
5 9 10 -1 20 -16 16 -16 55 1 61 6 2 9 8 5 12 -11 11 -28 -4 -28 -25 0 -11 -5
-17 -12 -15 -7 3 -19 -7 -25 -22 -16 -33 -17 -53 -3 -53 6 0 10 9 10 21 0 12
4 17 11 13 6 -3 8 -16 4 -28 -9 -30 -12 -85 -4 -80 12 7 20 -32 13 -60 -4 -16
-2 -26 5 -26 7 0 9 -13 6 -35 -2 -19 -1 -37 4 -39 4 -3 4 -31 1 -63 -4 -32 -5
-63 -3 -69 2 -6 -3 -14 -12 -18 -13 -4 -14 -10 -5 -26 11 -20 5 -60 -8 -60
-14 0 -7 -65 8 -77 9 -7 10 -12 4 -13 -14 0 -27 -64 -19 -90 3 -10 14 -21 23
-23 15 -4 15 -5 -2 -6 -16 -1 -17 -6 -11 -37 4 -26 2 -39 -7 -45 -10 -7 -9
-14 5 -39 18 -30 15 -56 -5 -44 -12 8 -28 -14 -28 -39 0 -14 5 -17 20 -12 11
4 20 2 20 -4 0 -6 8 -3 18 7 14 12 16 21 9 30 -10 13 -3 22 24 34 3 2 3 31 -1
65 -5 52 -3 65 12 77 20 17 38 2 19 -17 -6 -6 -11 -39 -11 -74 0 -48 4 -64 18
-72 15 -9 15 -12 2 -21 -8 -5 -10 -10 -5 -10 6 0 2 -7 -8 -14 -12 -9 -14 -16
-8 -21 6 -3 11 -13 11 -21 0 -8 -4 -12 -10 -9 -6 3 -10 -4 -10 -17 0 -18 2
-20 10 -8 8 12 10 11 10 -6 0 -11 -6 -28 -13 -38 -8 -10 -12 -30 -9 -43 4 -22
6 -20 24 19 12 26 22 38 26 31 11 -17 81 -63 96 -63 7 0 21 -9 32 -21 10 -12
36 -28 57 -36 20 -8 37 -18 37 -22 0 -14 158 -102 226 -125 94 -32 121 -47
174 -98 70 -68 98 -103 135 -165 46 -77 51 -83 83 -83 64 0 106 -22 168 -85
45 -48 77 -70 124 -89 34 -14 86 -43 114 -64 28 -21 77 -51 109 -66 32 -16 61
-34 64 -42 3 -8 10 -14 15 -14 6 0 19 -11 30 -25 11 -14 25 -25 32 -25 14 0
171 -106 209 -141 15 -13 33 -42 40 -64 10 -30 20 -41 38 -43 164 -20 275 -89
365 -226 18 -28 45 -60 60 -71 51 -38 91 -84 96 -110 8 -40 -8 -97 -33 -116
-27 -20 -21 -41 18 -65 76 -47 93 -61 107 -91 9 -19 16 -45 16 -58 0 -14 4
-25 9 -25 5 0 12 -13 16 -30 4 -16 11 -30 17 -30 6 0 8 -3 5 -7 -11 -11 84
-54 104 -48 18 6 19 29 19 645 l0 639 -22 3 c-13 2 -22 9 -20 16 1 6 -3 12 -9
12 -15 0 -64 61 -65 82 -2 26 -55 90 -89 107 -15 7 -30 22 -32 32 -3 11 -9 19
-13 19 -12 0 -21 62 -10 75 6 8 6 15 -2 23 -18 18 36 16 71 -2 42 -22 56 1 56
89 0 81 -23 135 -56 135 -11 0 -30 11 -42 25 -28 31 -108 60 -119 42 -6 -9 -8
-8 -9 3 -1 8 -5 -10 -9 -40 -6 -37 -4 -67 5 -95 30 -94 29 -135 -4 -135 -9 0
-22 -5 -28 -11 -5 -5 -46 -10 -90 -11 -70 -1 -89 3 -145 29 -37 17 -73 43 -85
59 -64 93 -54 305 17 347 16 10 30 22 30 28 0 5 6 9 14 9 7 0 16 9 19 20 3 11
12 20 21 20 10 0 13 6 10 15 -4 8 -12 15 -18 15 -19 0 -86 79 -86 101 0 12 7
19 20 19 11 0 20 6 20 13 0 9 2 9 9 -1 4 -7 14 -14 22 -15 8 -2 20 -6 27 -10
6 -5 17 -5 24 -1 8 5 9 2 5 -10 -6 -14 -3 -17 8 -12 9 3 14 2 11 -2 -6 -9 29
-42 44 -42 5 0 21 -13 36 -29 18 -20 39 -31 70 -36 25 -3 48 -13 50 -20 3 -8
12 -11 20 -8 8 3 14 -1 14 -11 0 -9 4 -16 8 -16 14 0 45 27 48 41 1 8 5 29 8
47 7 34 -1 41 -23 20 -10 -11 -12 -8 -10 12 2 14 -1 46 -5 72 -6 34 -12 45
-22 41 -15 -6 -17 10 -5 41 5 12 19 20 37 22 37 3 56 8 71 17 7 4 14 -1 19
-15 4 -13 13 -28 21 -34 16 -11 73 -7 73 6 0 5 3 17 6 27 5 15 4 15 -5 3 -6
-8 -11 -10 -11 -5 0 6 5 16 12 23 9 9 8 12 -5 12 -9 0 -17 7 -17 16 0 8 5 12
10 9 6 -3 10 1 10 9 0 9 -4 16 -10 16 -5 0 -10 8 -10 18 0 9 -9 28 -19 42 -16
20 -21 22 -35 11 -13 -11 -17 -10 -25 12 -7 19 -15 24 -30 20 -12 -3 -22 0
-22 6 -1 6 -2 16 -3 21 0 6 -7 14 -14 19 -7 4 -12 12 -11 17 1 5 -1 17 -6 27
-9 21 14 55 25 37 4 -6 26 -14 49 -17 30 -4 41 -10 37 -19 -3 -8 -1 -14 4 -14
6 0 10 -8 10 -18 0 -27 25 -56 40 -47 10 6 9 11 -6 23 -18 14 -18 14 6 9 36
-9 51 4 42 35 -9 33 -77 88 -108 88 -12 0 -26 5 -29 10 -3 6 0 10 7 10 7 0 2
9 -12 20 -22 17 -21 25 3 21 4 -1 3 7 -2 18 -6 10 -7 21 -3 25 3 4 -1 4 -9 1
-13 -5 -18 3 -22 32 -5 30 -13 41 -39 54 -100 49 -135 62 -153 61 -55 -6 -85
-14 -80 -22 3 -5 -3 -14 -14 -20 -16 -8 -19 -18 -16 -44 4 -30 2 -34 -23 -39
-33 -6 -181 1 -202 9 -45 19 -144 21 -176 4 -23 -13 -34 -50 -14 -50 6 0 10
-5 10 -11 0 -7 -10 -9 -24 -5 -14 3 -27 2 -31 -3 -3 -6 -18 -8 -34 -6 -15 2
-49 -1 -75 -7 -35 -7 -46 -14 -42 -25 3 -8 0 -26 -8 -41 -10 -20 -11 -34 -3
-52 5 -14 11 -39 13 -56 2 -30 0 -31 -59 -49 -33 -10 -77 -20 -96 -21 -20 -2
-37 -4 -38 -5 -2 -1 -7 -2 -12 -3 -5 0 -20 -13 -34 -28 -23 -25 -90 -49 -120
-44 -82 15 -115 33 -175 96 -78 81 -85 95 -77 155 6 53 9 57 53 85 26 16 51
31 57 33 5 2 10 28 11 58 2 77 2 79 18 79 21 0 35 71 25 122 -5 24 -12 59 -15
78 -3 19 -11 46 -17 59 -9 19 -9 25 1 28 6 3 12 10 12 17 0 7 10 23 23 36 12
14 21 28 19 33 -6 18 54 119 80 135 15 9 28 19 28 23 0 3 16 4 36 2 56 -6 129
-48 154 -88 17 -27 27 -34 41 -30 13 4 19 2 19 -9 0 -15 52 -32 69 -22 14 9
41 -4 41 -20 0 -8 6 -14 14 -14 7 0 19 -7 26 -15 7 -8 16 -12 22 -9 5 3 17 -4
27 -15 10 -12 28 -21 39 -21 11 0 27 -6 35 -14 8 -8 34 -20 58 -27 24 -6 38
-14 31 -16 -22 -8 -3 -21 26 -17 22 2 38 -5 67 -32 29 -26 40 -31 47 -22 6 10
8 8 8 -5 0 -25 29 -67 47 -67 7 0 23 -9 35 -19 11 -11 27 -17 35 -14 7 3 11 8
9 11 -3 3 -1 11 5 18 8 10 6 19 -5 36 -10 14 -16 17 -16 8 0 -12 -2 -12 -12
-1 -11 11 -10 14 0 18 8 3 3 17 -18 42 -16 21 -26 41 -23 45 4 4 -1 4 -11 0
-14 -5 -17 -4 -12 4 10 17 -3 54 -17 49 -7 -3 -12 5 -12 19 0 13 6 24 12 24 7
0 12 -5 10 -11 -1 -6 4 -14 11 -16 7 -3 12 3 13 14 0 16 1 16 9 -2 5 -11 9
-16 9 -11 1 5 7 4 14 -2 7 -6 28 -14 47 -17 19 -3 39 -10 45 -16 5 -5 17 -9
27 -9 10 0 21 -7 25 -16 3 -8 12 -13 19 -10 12 5 62 -30 121 -84 12 -11 27
-20 33 -20 5 0 10 -7 10 -15 0 -9 11 -20 25 -25 14 -5 25 -15 25 -21 0 -16 64
-65 110 -85 8 -3 40 -15 70 -26 30 -11 63 -24 72 -29 16 -8 17 15 17 331 1
187 -2 341 -7 341 -4 1 -27 3 -52 5 -53 3 -125 12 -125 14 0 7 -288 4 -292 -3
-3 -6 -158 -3 -158 4 0 0 -22 3 -50 5 -27 2 -66 6 -85 9 -102 13 -180 13 -232
1 -31 -7 -67 -12 -81 -10 -16 1 -28 -4 -31 -13 -4 -9 -5 -16 -4 -17 2 -1 21
-8 43 -15 52 -18 90 -57 75 -77 -7 -7 -9 -18 -5 -24 10 -16 -4 -12 -34 9 -18
13 -32 17 -42 10 -22 -14 -31 -11 -24 10 4 13 0 20 -13 23 -14 4 -18 13 -17
39 3 50 -3 59 -44 59 -20 0 -55 5 -77 10 -50 11 -137 14 -179 5 -16 -3 -47 -9
-67 -12 -21 -3 -38 -10 -38 -17 0 -6 -11 -13 -25 -14 -14 -1 -25 4 -25 11 0
18 -45 36 -128 53 -83 16 -87 16 -94 9z m292 -95 c0 -5 -4 -10 -10 -10 -5 0
-10 5 -10 10 0 6 5 10 10 10 6 0 10 -4 10 -10z m777 -252 c-3 -8 -6 -5 -6 6
-1 11 2 17 5 13 3 -3 4 -12 1 -19z m593 -18 c0 -5 -5 -10 -11 -10 -5 0 -7 5
-4 10 3 6 8 10 11 10 2 0 4 -4 4 -10z m-470 -210 c0 -5 -5 -10 -11 -10 -5 0
-7 5 -4 10 3 6 8 10 11 10 2 0 4 -4 4 -10z m-1546 -95 c-4 -8 -10 -15 -15 -15
-4 0 -6 7 -3 15 4 8 10 15 15 15 4 0 6 -7 3 -15z m63 -42 c3 -7 -3 -9 -16 -6
-12 3 -21 10 -21 15 0 13 32 6 37 -9z m43 -19 c0 -8 -4 -12 -10 -9 -5 3 -10
10 -10 16 0 5 5 9 10 9 6 0 10 -7 10 -16z m50 -49 c-12 -15 -30 -12 -30 6 0 5
10 9 21 9 18 0 19 -2 9 -15z m70 -25 c0 -5 -4 -10 -10 -10 -5 0 -10 5 -10 10
0 6 5 10 10 10 6 0 10 -4 10 -10z m1103 -116 c32 -6 37 -10 32 -28 -5 -16 -4
-18 4 -6 15 22 24 5 11 -20 -7 -13 -17 -19 -27 -16 -11 4 -13 2 -10 -9 8 -20
-11 -29 -29 -14 -14 12 -14 14 0 25 15 10 15 12 1 18 -8 3 -15 11 -15 17 0 7
-8 18 -17 25 -21 16 -10 17 50 8z m80 -72 c-3 -12 -12 -22 -19 -22 -18 0 -18
6 4 28 21 23 23 22 15 -6z m-1853 -42 c0 -5 -4 -10 -10 -10 -5 0 -10 5 -10 10
0 6 5 10 10 10 6 0 10 -4 10 -10z m-5 -130 c-14 -22 -35 -9 -35 20 l0 30 20
-20 c12 -12 18 -25 15 -30z m1754 -79 c8 -5 9 -11 3 -15 -14 -8 -43 4 -36 15
7 11 15 11 33 0z m41 -35 c0 -3 -4 -8 -10 -11 -5 -3 -10 -1 -10 4 0 6 5 11 10
11 6 0 10 -2 10 -4z m-396 -33 c3 -4 14 -8 24 -9 45 -7 69 -12 92 -22 14 -5
27 -9 30 -9 14 2 38 -22 57 -58 11 -22 25 -40 31 -40 13 0 41 -35 42 -50 0 -5
-5 -3 -10 5 -8 12 -10 11 -10 -7 0 -13 5 -22 13 -20 7 1 12 -8 12 -23 0 -21
-4 -25 -25 -23 -14 2 -41 4 -60 6 -20 2 -47 11 -60 20 -13 9 -33 17 -44 17
-30 0 -100 39 -146 81 -23 21 -46 36 -51 33 -5 -3 -9 17 -9 45 0 44 3 50 23
54 38 7 83 7 91 0z m420 -8 c-4 -8 -8 -15 -10 -15 -2 0 -4 7 -4 15 0 8 4 15
10 15 5 0 7 -7 4 -15z m86 -20 l25 -14 -32 -1 c-23 0 -33 5 -33 15 0 18 8 18
40 0z"/>
<path d="M4270 4458 c-30 -4 -61 -5 -68 -3 -8 3 -27 -4 -43 -16 -16 -11 -29
-15 -29 -9 0 6 -5 8 -10 5 -7 -4 -7 -11 -2 -18 5 -7 8 -28 7 -47 -2 -34 4 -68
26 -141 l11 -37 55 29 c30 16 64 29 74 29 22 0 39 32 21 38 -15 5 -16 48 -2
57 6 3 23 -3 39 -15 17 -11 36 -19 43 -18 8 2 13 -7 13 -24 -1 -22 2 -25 17
-17 23 13 28 11 22 -6 -5 -11 -2 -13 10 -9 9 3 16 1 16 -5 0 -6 9 -11 19 -11
11 0 23 -4 26 -10 7 -12 45 -14 45 -2 0 4 13 12 28 18 23 9 31 21 42 60 7 27
14 60 16 74 1 13 10 30 19 36 10 7 14 18 10 24 -5 8 -11 8 -21 -1 -9 -7 -18
-8 -26 -2 -17 13 -189 33 -253 31 -27 -1 -75 -6 -105 -10z m-15 -58 c9 -15 -3
-30 -20 -24 -7 3 -11 12 -8 20 6 16 19 18 28 4z m25 -29 c0 -6 -4 -13 -10 -16
-5 -3 -10 1 -10 9 0 9 5 16 10 16 6 0 10 -4 10 -9z"/>
<path d="M4045 4310 c-3 -5 -1 -10 4 -10 6 0 11 5 11 10 0 6 -2 10 -4 10 -3 0
-8 -4 -11 -10z"/>
<path d="M4078 4273 c7 -3 16 -2 19 1 4 3 -2 6 -13 5 -11 0 -14 -3 -6 -6z"/>
<path d="M4330 4269 c0 -5 5 -7 10 -4 6 3 10 8 10 11 0 2 -4 4 -10 4 -5 0 -10
-5 -10 -11z"/>
<path d="M4360 4250 c0 -5 5 -10 11 -10 5 0 7 5 4 10 -3 6 -8 10 -11 10 -2 0
-4 -4 -4 -10z"/>
<path d="M3208 4213 c7 -3 16 -2 19 1 4 3 -2 6 -13 5 -11 0 -14 -3 -6 -6z"/>
<path d="M3490 4150 c0 -5 5 -10 10 -10 6 0 10 5 10 10 0 6 -4 10 -10 10 -5 0
-10 -4 -10 -10z"/>
<path d="M3530 4140 c0 -5 5 -10 11 -10 5 0 7 5 4 10 -3 6 -8 10 -11 10 -2 0
-4 -4 -4 -10z"/>
<path d="M4440 4129 c0 -5 5 -7 10 -4 6 3 10 8 10 11 0 2 -4 4 -10 4 -5 0 -10
-5 -10 -11z"/>
<path d="M3273 4093 c-18 -7 -16 -23 2 -23 8 0 15 7 15 15 0 8 -1 15 -2 14 -2
0 -9 -3 -15 -6z"/>
<path d="M3042 4069 c2 -6 8 -10 13 -10 5 0 11 4 13 10 2 6 -4 11 -13 11 -9 0
-15 -5 -13 -11z"/>
<path d="M4294 3946 c-14 -11 -16 -18 -8 -26 8 -8 15 -4 28 14 18 29 10 34
-20 12z"/>
<path d="M2130 3935 c-7 -9 -10 -18 -7 -21 3 -3 10 4 17 15 13 25 8 27 -10 6z"/>
<path d="M3285 3830 c3 -5 8 -10 11 -10 2 0 4 5 4 10 0 6 -5 10 -11 10 -5 0
-7 -4 -4 -10z"/>
<path d="M3306 3795 c4 -8 10 -15 15 -15 5 0 9 7 9 15 0 8 -7 15 -15 15 -9 0
-12 -6 -9 -15z"/>
<path d="M2480 3750 c0 -5 4 -10 9 -10 6 0 13 5 16 10 3 6 -1 10 -9 10 -9 0
-16 -4 -16 -10z"/>
<path d="M2420 3711 c0 -18 18 -21 30 -6 10 13 9 15 -9 15 -11 0 -21 -4 -21
-9z"/>
<path d="M3519 3444 c4 -15 12 -29 19 -32 19 -6 14 23 -7 42 -19 18 -20 17
-12 -10z"/>
<path d="M3852 3458 c6 -18 28 -21 28 -4 0 9 -7 16 -16 16 -9 0 -14 -5 -12
-12z"/>
<path d="M3358 3425 c2 -14 11 -25 21 -25 14 -1 14 -2 -1 -11 -10 -5 -18 -17
-18 -26 0 -12 5 -11 20 7 24 27 25 40 5 40 -8 0 -15 6 -15 14 0 8 -4 17 -9 20
-4 3 -6 -6 -3 -19z"/>
<path d="M1516 3405 c-3 -8 -1 -15 4 -15 6 0 10 7 10 15 0 8 -2 15 -4 15 -2 0
-6 -7 -10 -15z"/>
<path d="M4020 3375 c0 -8 2 -15 4 -15 2 0 6 7 10 15 3 8 1 15 -4 15 -6 0 -10
-7 -10 -15z"/>
<path d="M2342 3349 c2 -7 10 -15 17 -17 8 -3 12 1 9 9 -2 7 -10 15 -17 17 -8
3 -12 -1 -9 -9z"/>
<path d="M2703 3224 c-3 -9 0 -20 8 -25 27 -17 36 -8 23 25 -8 21 -23 20 -31
0z"/>
<path d="M4020 3219 c0 -5 5 -7 10 -4 6 3 10 8 10 11 0 2 -4 4 -10 4 -5 0 -10
-5 -10 -11z"/>
<path d="M3182 3199 c2 -7 10 -15 17 -17 8 -3 12 1 9 9 -2 7 -10 15 -17 17 -8
3 -12 -1 -9 -9z"/>
<path d="M3455 3170 c-3 -5 -1 -10 4 -10 6 0 11 5 11 10 0 6 -2 10 -4 10 -3 0
-8 -4 -11 -10z"/>
<path d="M2957 3115 c-4 -8 -2 -17 3 -20 6 -4 10 3 10 14 0 25 -6 27 -13 6z"/>
<path d="M2810 3080 c0 -5 5 -10 10 -10 6 0 10 5 10 10 0 6 -4 10 -10 10 -5 0
-10 -4 -10 -10z"/>
<path d="M4007 3008 c5 -40 3 -48 -10 -48 -9 0 -18 -10 -22 -22 -3 -13 -11
-33 -18 -46 -9 -19 -8 -25 3 -32 8 -5 11 -12 8 -16 -10 -10 10 -44 26 -44 15
0 26 42 19 71 -3 10 -10 16 -15 12 -6 -3 -9 0 -6 7 6 18 49 20 66 3 11 -10 11
-17 3 -27 -8 -10 -9 -16 -1 -21 5 -3 12 0 15 7 7 22 1 65 -10 65 -33 0 -45 5
-45 18 0 9 6 15 13 14 31 -4 45 3 49 25 4 22 3 23 -19 13 -13 -5 -26 -7 -31
-2 -4 4 -1 10 6 12 17 6 15 23 -3 23 -7 0 -19 8 -24 18 -8 12 -9 4 -4 -30z
m-10 -170 c-3 -8 -6 -5 -6 6 -1 11 2 17 5 13 3 -3 4 -12 1 -19z"/>
<path d="M2535 2920 c-17 -19 -18 -22 -2 -37 9 -9 20 -13 24 -9 5 5 2 11 -4
13 -7 3 -13 12 -13 20 0 9 6 13 14 10 10 -4 13 -1 9 9 -7 18 -6 18 -28 -6z"/>
<path d="M3937 2830 c3 -11 0 -20 -6 -20 -6 0 -11 -7 -11 -15 0 -8 -5 -15 -11
-15 -5 0 -16 -15 -24 -34 -8 -19 -20 -38 -26 -41 -5 -4 -8 -13 -5 -20 3 -8 -4
-12 -20 -12 -14 0 -24 5 -24 14 0 8 -4 12 -9 8 -6 -3 -9 -13 -8 -23 1 -21 -29
-68 -49 -76 -8 -3 -14 -11 -14 -19 0 -7 -11 -24 -25 -37 -13 -12 -22 -27 -19
-31 9 -15 -10 -39 -47 -58 -20 -11 -35 -27 -37 -41 -3 -15 0 -20 8 -15 6 4 9
13 6 21 -3 9 6 15 29 20 19 3 35 10 35 15 0 5 6 9 14 9 36 0 72 33 108 100 21
39 38 78 39 88 0 10 3 12 6 5 7 -20 23 -15 23 6 0 25 31 37 43 16 8 -14 11
-13 23 10 8 15 11 32 8 37 -4 6 0 14 7 19 10 6 11 9 2 9 -7 0 -13 5 -13 10 0
6 7 10 15 10 17 0 20 25 5 35 -5 3 -10 15 -10 26 0 10 -4 19 -9 19 -5 0 -7 -9
-4 -20z m-9 -117 c-4 -22 -22 -20 -26 1 -2 10 3 16 13 16 10 0 15 -7 13 -17z
m-172 -180 c-10 -10 -19 5 -10 18 6 11 8 11 12 0 2 -7 1 -15 -2 -18z m-21 -13
c3 -5 -1 -10 -9 -10 -9 0 -16 5 -16 10 0 6 4 10 9 10 6 0 13 -4 16 -10z"/>
<path d="M2481 2814 c0 -11 3 -14 6 -6 3 7 2 16 -1 19 -3 4 -6 -2 -5 -13z"/>
<path d="M2677 2793 c-14 -22 2 -74 27 -94 27 -21 28 -21 44 -3 20 21 26 60
11 69 -5 4 -9 1 -9 -4 0 -6 -14 -11 -30 -11 -27 0 -30 2 -24 25 6 23 -8 36
-19 18z"/>
<path d="M2455 2771 c-10 -18 17 -23 33 -7 15 15 15 16 -5 16 -12 0 -24 -4
-28 -9z"/>
<path d="M3800 2720 c0 -5 5 -10 11 -10 5 0 7 5 4 10 -3 6 -8 10 -11 10 -2 0
-4 -4 -4 -10z"/>
<path d="M2596 2691 c-3 -5 1 -12 10 -15 20 -8 29 -1 19 13 -8 13 -22 14 -29
2z"/>
<path d="M2620 2641 c0 -19 43 -55 54 -44 12 12 6 33 -9 33 -9 0 -18 7 -21 15
-9 21 -24 19 -24 -4z"/>
<path d="M2721 2644 c0 -11 3 -14 6 -6 3 7 2 16 -1 19 -3 4 -6 -2 -5 -13z"/>
<path d="M3890 2650 c0 -5 5 -10 10 -10 6 0 10 5 10 10 0 6 -4 10 -10 10 -5 0
-10 -4 -10 -10z"/>
<path d="M4061 2624 c0 -11 3 -14 6 -6 3 7 2 16 -1 19 -3 4 -6 -2 -5 -13z"/>
<path d="M186 2547 c-20 -15 -12 -47 13 -47 24 0 36 12 37 38 1 25 -22 29 -50
9z"/>
<path d="M4043 2485 c0 -27 2 -38 4 -22 2 15 2 37 0 50 -2 12 -4 0 -4 -28z"/>
<path d="M174 2481 c-11 -11 -1 -18 26 -18 17 0 30 6 30 13 0 11 -46 15 -56 5z"/>
<path d="M3627 2383 c-7 -11 10 -40 18 -31 4 4 3 14 -3 24 -5 9 -12 12 -15 7z"/>
<path d="M2806 2214 c-6 -24 7 -54 23 -54 12 0 6 73 -5 77 -7 2 -15 -8 -18
-23z"/>
<path d="M3515 2210 c3 -5 8 -10 11 -10 2 0 4 5 4 10 0 6 -5 10 -11 10 -5 0
-7 -4 -4 -10z"/>
<path d="M2882 2098 c6 -18 28 -21 28 -4 0 9 -7 16 -16 16 -9 0 -14 -5 -12
-12z"/>
<path d="M2850 2090 c0 -5 5 -10 10 -10 6 0 10 5 10 10 0 6 -4 10 -10 10 -5 0
-10 -4 -10 -10z"/>
<path d="M2928 2023 c7 -3 16 -2 19 1 4 3 -2 6 -13 5 -11 0 -14 -3 -6 -6z"/>
<path d="M4240 2016 c0 -6 14 -20 30 -31 18 -12 30 -29 30 -42 0 -13 4 -23 8
-23 18 0 72 74 72 98 0 5 -31 9 -70 9 -44 0 -70 -4 -70 -11z"/>
<path d="M2290 1980 c0 -5 7 -10 15 -10 8 0 15 5 15 10 0 6 -7 10 -15 10 -8 0
-15 -4 -15 -10z"/>
<path d="M2240 1970 c0 -5 5 -10 10 -10 6 0 10 5 10 10 0 6 -4 10 -10 10 -5 0
-10 -4 -10 -10z"/>
<path d="M2310 1905 c0 -8 7 -15 16 -15 14 0 14 3 4 15 -7 8 -14 15 -16 15 -2
0 -4 -7 -4 -15z"/>
<path d="M1 1844 c0 -11 3 -14 6 -6 3 7 2 16 -1 19 -3 4 -6 -2 -5 -13z"/>
<path d="M4754 1836 c39 -14 71 -24 73 -22 7 7 -69 38 -105 42 -27 4 -19 -1
32 -20z"/>
<path d="M4566 1841 c-6 -10 43 -26 52 -16 7 7 2 11 -25 19 -12 4 -24 3 -27
-3z"/>
<path d="M31 1794 c0 -11 3 -14 6 -6 3 7 2 16 -1 19 -3 4 -6 -2 -5 -13z"/>
<path d="M4640 1802 c0 -14 11 -21 26 -15 21 8 17 23 -6 23 -11 0 -20 -4 -20
-8z"/>
<path d="M4740 1800 c0 -6 6 -10 14 -10 7 0 29 -3 47 -6 23 -4 29 -2 19 4 -23
14 -80 23 -80 12z"/>
<path d="M17 1753 c-13 -13 -7 -21 13 -16 11 3 20 9 20 14 0 10 -24 12 -33 2z"/>
<path d="M2160 1750 c0 -5 9 -10 20 -10 11 0 23 0 27 -1 4 0 9 4 11 10 2 6
-10 11 -27 11 -17 0 -31 -4 -31 -10z"/>
<path d="M45 1710 c4 -6 11 -8 16 -5 14 9 11 15 -7 15 -8 0 -12 -5 -9 -10z"/>
<path d="M0 1690 c0 -5 7 -10 16 -10 8 0 12 5 9 10 -3 6 -10 10 -16 10 -5 0
-9 -4 -9 -10z"/>
<path d="M4405 1610 c-4 -6 0 -12 7 -14 7 -3 41 -15 76 -27 53 -18 74 -21 141
-15 60 5 82 3 93 -7 34 -34 59 -40 114 -27 48 12 57 11 107 -10 l56 -23 282
12 c156 7 285 14 288 17 10 9 -284 9 -449 -1 -118 -7 -129 -6 -175 15 -41 19
-59 21 -112 16 -58 -6 -66 -4 -98 20 -33 25 -37 26 -80 14 -48 -14 -110 -8
-154 14 -37 19 -89 27 -96 16z"/>
<path d="M2 1590 c0 -14 2 -19 5 -12 2 6 2 18 0 25 -3 6 -5 1 -5 -13z"/>
<path d="M0 1485 c0 -14 4 -25 9 -25 4 0 6 11 3 25 -2 14 -6 25 -8 25 -2 0 -4
-11 -4 -25z"/>
<path d="M1480 1500 c0 -6 12 -8 26 -6 39 7 42 16 6 16 -18 0 -32 -5 -32 -10z"/>
<path d="M5628 1503 c6 -2 18 -2 25 0 6 3 1 5 -13 5 -14 0 -19 -2 -12 -5z"/>
<path d="M5750 1480 c8 -5 20 -10 25 -10 6 0 3 5 -5 10 -8 5 -19 10 -25 10 -5
0 -3 -5 5 -10z"/>
<path d="M1432 1460 c0 -14 2 -19 5 -12 2 6 2 18 0 25 -3 6 -5 1 -5 -13z"/>
<path d="M56 1461 c-4 -7 -5 -15 -2 -18 9 -9 19 4 14 18 -4 11 -6 11 -12 0z"/>
<path d="M1224 1445 c-10 -8 -14 -15 -8 -15 5 0 19 7 30 15 10 8 14 15 8 15
-5 0 -19 -7 -30 -15z"/>
<path d="M1606 1428 c-33 -18 -36 -23 -20 -28 18 -7 17 -7 -3 -18 -12 -7 -33
-12 -46 -12 -14 0 -49 -9 -79 -19 -132 -47 -190 -62 -204 -50 -15 12 -38 3
-29 -12 4 -5 -5 -9 -19 -9 -14 0 -37 -5 -51 -12 -22 -10 -28 -9 -36 3 -7 11
-9 11 -9 -5 0 -16 -6 -17 -42 -12 -66 9 -75 8 -112 -9 -24 -12 -54 -16 -93
-13 -71 4 -81 -13 -17 -29 39 -10 54 -9 101 8 39 13 60 16 73 9 27 -14 87 -12
118 4 15 7 57 17 93 20 36 4 77 13 92 21 14 7 43 16 65 20 21 3 61 17 87 30
39 20 51 22 69 13 13 -7 16 -13 8 -16 -14 -4 -16 -22 -3 -22 5 0 12 9 16 19 6
21 38 38 33 18 -2 -6 2 -13 7 -15 6 -1 12 14 15 35 3 21 9 44 13 51 10 14 53
16 62 2 11 -17 66 -11 102 11 25 16 31 25 24 32 -8 8 -21 6 -47 -8 -34 -18
-37 -18 -66 -2 -38 22 -54 21 -102 -5z"/>
<path d="M90 1431 c0 -6 5 -13 10 -16 6 -3 10 1 10 9 0 9 -4 16 -10 16 -5 0
-10 -4 -10 -9z"/>
<path d="M1520 1430 c0 -5 5 -10 10 -10 6 0 10 5 10 10 0 6 -4 10 -10 10 -5 0
-10 -4 -10 -10z"/>
<path d="M18 1415 c13 -9 26 -14 29 -11 8 8 3 12 -27 21 l-25 7 23 -17z"/>
<path d="M78 1373 c5 -25 4 -27 -12 -14 -14 12 -21 12 -41 1 -33 -17 -34 -94
-2 -122 l22 -20 -22 5 c-21 5 -23 1 -23 -33 0 -22 5 -40 13 -43 9 -3 9 -7 0
-19 -12 -14 -19 -288 -7 -288 15 0 53 27 87 62 22 21 47 43 57 48 13 7 18 20
17 39 -1 16 -5 27 -10 24 -11 -7 -8 9 13 52 18 39 18 40 -2 59 -11 10 -16 21
-10 25 14 9 25 81 12 81 -5 0 -10 -12 -10 -27 -1 -28 -38 -107 -41 -88 -1 6
-2 41 -3 79 -1 50 -5 70 -15 74 -11 4 -13 -2 -8 -27 4 -18 2 -31 -3 -31 -6 0
-10 11 -10 25 0 14 -7 37 -16 50 -15 23 -15 25 -1 25 10 0 18 13 23 35 7 40
17 44 31 13 5 -12 12 -18 15 -12 9 13 -13 40 -38 48 -19 6 -21 3 -16 -21z m12
-224 c0 -6 -4 -7 -10 -4 -5 3 -10 11 -10 16 0 6 5 7 10 4 6 -3 10 -11 10 -16z
m60 -68 c0 -5 -7 -14 -15 -21 -16 -14 -18 -10 -9 14 6 17 24 22 24 7z m-63
-33 c-3 -8 -6 -5 -6 6 -1 11 2 17 5 13 3 -3 4 -12 1 -19z m73 -68 c0 -5 -2
-10 -4 -10 -3 0 -8 5 -11 10 -3 6 -1 10 4 10 6 0 11 -4 11 -10z"/>
<path d="M175 1361 c-3 -5 -1 -12 5 -16 5 -3 10 1 10 9 0 18 -6 21 -15 7z"/>
<path d="M144 1319 c-3 -5 0 -9 5 -9 6 0 11 -7 11 -15 0 -8 9 -15 19 -15 33 0
33 17 1 33 -17 9 -32 11 -36 6z"/>
<path d="M103 1312 c-7 -4 -9 -13 -5 -19 6 -9 11 -6 20 7 13 21 6 26 -15 12z"/>
<path d="M4138 1294 c-24 -23 12 -28 312 -43 96 -5 195 -14 220 -21 26 -6 68
-9 101 -5 43 5 64 3 89 -10 28 -15 65 -17 252 -16 120 0 222 2 226 4 4 3 79 8
167 12 190 8 345 -5 482 -41 93 -24 248 -90 286 -122 9 -8 20 -12 25 -8 21 22
-174 121 -303 154 -193 49 -301 55 -627 33 -242 -16 -461 -10 -507 13 -23 12
-47 15 -98 10 -48 -4 -87 -1 -133 10 -40 10 -123 18 -215 20 -82 3 -177 7
-210 11 -33 4 -63 3 -67 -1z"/>
<path d="M1720 1280 c0 -5 5 -10 11 -10 5 0 7 5 4 10 -3 6 -8 10 -11 10 -2 0
-4 -4 -4 -10z"/>
<path d="M130 1264 c0 -8 5 -12 10 -9 6 4 8 11 5 16 -9 14 -15 11 -15 -7z"/>
<path d="M1421 1218 c12 -22 29 -23 29 -2 0 11 6 14 23 8 12 -3 19 -3 14 1 -4
5 -22 9 -41 10 -30 1 -33 -2 -25 -17z"/>
<path d="M1528 1233 c6 -2 18 -2 25 0 6 3 1 5 -13 5 -14 0 -19 -2 -12 -5z"/>
<path d="M1580 1223 c8 -3 18 -10 21 -16 4 -5 12 -6 18 -3 21 14 11 26 -21 25
-18 0 -26 -3 -18 -6z"/>
<path d="M2301 1184 c0 -11 3 -14 6 -6 3 7 2 16 -1 19 -3 4 -6 -2 -5 -13z"/>
<path d="M650 1165 c-11 -13 -7 -15 24 -15 21 0 44 7 52 15 14 13 11 15 -24
15 -23 0 -45 -6 -52 -15z"/>
<path d="M1630 1150 c-9 -6 -10 -10 -3 -10 6 0 15 5 18 10 8 12 4 12 -15 0z"/>
<path d="M1955 1128 c-44 -18 -64 -20 -173 -14 -119 5 -125 5 -155 -18 -18
-13 -61 -29 -97 -36 -35 -6 -103 -25 -150 -40 -129 -44 -235 -63 -305 -55 -47
4 -74 1 -125 -16 -52 -17 -92 -22 -205 -24 -77 -1 -185 -6 -240 -10 -176 -14
-505 -125 -505 -171 0 -9 3 -14 8 -12 4 2 36 17 72 34 107 51 140 62 255 83
163 31 286 44 420 46 87 1 141 7 195 22 56 16 92 20 141 16 75 -6 220 24 354
74 22 8 74 21 115 29 44 9 83 22 95 34 20 18 31 20 141 15 107 -5 126 -3 183
17 36 13 67 29 69 36 5 18 -34 13 -93 -10z"/>
<path d="M2340 1050 c0 -5 5 -10 11 -10 5 0 7 5 4 10 -3 6 -8 10 -11 10 -2 0
-4 -4 -4 -10z"/>
<path d="M6400 1027 c-36 -32 -64 -77 -48 -77 19 1 99 79 93 91 -9 13 -17 11
-45 -14z"/>
<path d="M6480 1010 c0 -5 5 -10 10 -10 6 0 10 5 10 10 0 6 -4 10 -10 10 -5 0
-10 -4 -10 -10z"/>
<path d="M3733 914 c-42 -19 12 -24 255 -24 147 0 321 -5 387 -10 66 -6 179
-14 250 -20 72 -5 146 -14 165 -20 57 -19 390 -30 525 -19 66 6 151 12 189 14
37 3 83 10 101 16 27 10 38 9 66 -5 19 -10 70 -24 114 -32 81 -14 240 -60 327
-94 27 -10 50 -14 53 -10 6 10 -63 60 -83 60 -8 0 -53 12 -101 27 -122 37
-298 75 -351 76 -62 1 -215 -9 -335 -21 -134 -14 -452 0 -520 23 -30 10 -66
14 -90 11 -22 -3 -87 2 -145 10 -105 16 -780 30 -807 18z"/>
<path d="M2348 814 c-6 -6 -194 -36 -428 -69 -169 -24 -181 -26 -270 -47 -118
-27 -238 -48 -283 -48 -20 0 -70 -9 -109 -20 -40 -11 -87 -20 -104 -20 -17 0
-66 -16 -108 -36 l-77 -35 -202 2 c-319 3 -729 -52 -745 -100 -5 -16 49 -11
138 13 55 14 175 30 305 41 39 3 94 10 123 16 30 6 66 8 80 4 55 -14 295 -6
352 12 30 9 57 20 60 24 9 13 60 29 94 29 18 0 52 7 77 15 24 8 96 19 159 24
73 6 154 21 220 40 58 17 121 31 142 31 20 0 72 7 115 15 43 8 148 24 233 35
196 26 302 49 297 64 -4 12 -59 21 -69 10z"/>
<path d="M6605 556 c-44 -24 -115 -62 -157 -85 -43 -23 -81 -48 -85 -55 -5 -7
-24 -21 -43 -31 -19 -10 -55 -32 -80 -50 -25 -17 -75 -48 -112 -69 -38 -20
-68 -42 -68 -47 0 -16 36 -2 125 48 126 70 159 91 175 111 8 10 73 50 143 88
196 106 217 118 217 127 0 16 -39 4 -115 -37z"/>
<path d="M2895 484 c-92 -19 -151 -28 -323 -53 -79 -12 -147 -23 -151 -25 -3
-3 -45 -9 -91 -16 -47 -6 -132 -19 -190 -30 -58 -11 -163 -27 -235 -35 -138
-16 -259 -39 -445 -85 -63 -15 -164 -33 -225 -40 -129 -13 -226 -32 -348 -67
-67 -19 -117 -26 -210 -28 -78 -2 -136 -8 -162 -18 -27 -10 -85 -16 -175 -18
-116 -3 -137 -6 -148 -21 -7 -10 -21 -18 -31 -18 -11 0 -21 -7 -25 -15 -8 -21
89 -21 110 0 9 9 35 15 62 16 115 1 200 10 239 25 29 11 78 17 150 18 85 1
129 8 208 30 98 27 121 32 320 60 95 14 127 21 340 68 91 20 282 52 410 68 39
5 138 21 220 34 83 14 224 36 315 51 91 14 226 37 300 51 74 13 154 24 178 24
45 0 55 13 23 30 -23 12 -26 12 -116 -6z"/>
<path d="M3161 486 c-7 -8 -19 -12 -28 -9 -10 4 -14 2 -11 -7 3 -10 23 -12 79
-9 78 4 854 5 1249 1 147 -2 265 -8 315 -17 72 -13 163 -19 635 -44 89 -5 160
-3 210 5 41 6 81 9 89 6 8 -3 12 0 9 8 -8 26 -57 33 -122 17 -69 -17 -106 -16
-731 28 -49 4 -103 11 -120 17 -19 6 -311 12 -796 15 -674 4 -767 3 -778 -11z"/>
<path d="M5720 367 c0 -18 2 -19 110 -45 141 -35 181 -43 191 -36 18 11 -12
34 -45 34 -17 0 -65 11 -106 24 -111 36 -150 42 -150 23z"/>
<path d="M6010 210 c0 -5 5 -10 10 -10 6 0 10 5 10 10 0 6 -4 10 -10 10 -5 0
-10 -4 -10 -10z"/>
<path d="M197 140 c3 -11 7 -20 9 -20 2 0 4 9 4 20 0 11 -4 20 -9 20 -5 0 -7
-9 -4 -20z"/>
<path d="M3718 75 c-2 -1 -183 -5 -403 -8 -352 -5 -423 -9 -595 -32 -107 -14
-199 -27 -205 -30 -26 -9 226 -3 360 9 247 24 1349 40 1432 22 16 -4 96 -2
178 3 100 7 163 7 190 0 50 -12 499 -38 660 -38 146 0 126 14 -35 23 -63 4
-167 11 -230 16 -63 6 -154 10 -201 10 -48 0 -111 5 -140 11 -45 9 -1001 22
-1011 14z"/>
<path d="M6728 70 c-1 -5 -32 -23 -68 -39 l-65 -30 41 -1 c45 0 107 34 112 63
4 18 -14 24 -20 7z"/>
<path d="M0 36 c0 -26 16 -36 58 -36 l26 0 -34 30 c-43 36 -50 37 -50 6z"/>
</g>
</svg>
